<svg width="37" height="37" viewBox="0 0 37 37" fill="none" xmlns="http://www.w3.org/2000/svg">
<path d="M18.5017 0.140625C13.5156 0.140625 12.8897 0.162473 10.9315 0.251516C8.97699 0.341109 7.64282 0.650465 6.47553 1.10449C5.26785 1.57339 4.24358 2.20073 3.22316 3.22151C2.20183 4.24211 1.57449 5.26638 1.10413 6.47351C0.648813 7.64116 0.33909 8.97589 0.251148 10.9295C0.163574 12.8879 0.140625 13.514 0.140625 18.5002C0.140625 23.4864 0.162656 24.1103 0.251516 26.0685C0.341477 28.023 0.650832 29.3572 1.10449 30.5245C1.57376 31.7322 2.2011 32.7564 3.22188 33.7768C4.24211 34.7982 5.26638 35.427 6.47314 35.8959C7.64135 36.3499 8.97571 36.6593 10.9299 36.7489C12.8883 36.8379 13.5136 36.8597 18.4994 36.8597C23.486 36.8597 24.1099 36.8379 26.0681 36.7489C28.0226 36.6593 29.3583 36.3499 30.5265 35.8959C31.7336 35.427 32.7564 34.7982 33.7765 33.7768C34.7978 32.7564 35.425 31.7322 35.8955 30.525C36.3468 29.3572 36.6567 28.0226 36.7485 26.0688C36.8364 24.1106 36.8594 23.4864 36.8594 18.5002C36.8594 13.514 36.8364 12.8883 36.7485 10.9299C36.6567 8.97534 36.3468 7.64135 35.8955 6.47406C35.425 5.26638 34.7978 4.24211 33.7765 3.22151C32.7553 2.20036 31.734 1.57302 30.5254 1.10468C29.355 0.650465 28.0201 0.340926 26.0655 0.251516C24.1071 0.162473 23.4837 0.140625 18.496 0.140625H18.5017ZM16.8546 3.44917C17.3435 3.44843 17.889 3.44917 18.5017 3.44917C23.4038 3.44917 23.9847 3.46679 25.9205 3.55473C27.7105 3.63662 28.6821 3.93569 29.3293 4.18703C30.1861 4.5197 30.7969 4.91755 31.4391 5.56031C32.0817 6.20289 32.4794 6.81481 32.813 7.67164C33.0643 8.31789 33.3638 9.28947 33.4453 11.0795C33.5332 13.015 33.5523 13.5962 33.5523 18.496C33.5523 23.3957 33.5332 23.9772 33.4453 25.9124C33.3634 27.7025 33.0643 28.674 32.813 29.3205C32.4803 30.1773 32.0817 30.7874 31.4391 31.4296C30.7966 32.0722 30.1865 32.4698 29.3293 32.8027C28.6828 33.0551 27.7105 33.3535 25.9205 33.4354C23.985 33.5233 23.4038 33.5424 18.5017 33.5424C13.5993 33.5424 13.0183 33.5233 11.083 33.4354C9.29296 33.3527 8.32138 33.0537 7.67366 32.8023C6.81701 32.4695 6.20491 32.0718 5.56233 31.4292C4.91975 30.7866 4.52209 30.1762 4.1885 29.319C3.93716 28.6726 3.63772 27.701 3.5562 25.9109C3.46826 23.9755 3.45064 23.3942 3.45064 18.4914C3.45064 13.5887 3.46826 13.0104 3.5562 11.0749C3.63809 9.28488 3.93716 8.3133 4.1885 7.66613C4.52136 6.8093 4.91975 6.19738 5.56252 5.5548C6.20509 4.91223 6.81701 4.51438 7.67384 4.18097C8.32101 3.92853 9.29296 3.63019 11.083 3.54794C12.7766 3.47138 13.433 3.44843 16.8546 3.44458V3.44917ZM28.3019 6.49756C27.0856 6.49756 26.0988 7.48346 26.0988 8.69995C26.0988 9.91626 27.0856 10.9031 28.3019 10.9031C29.5182 10.9031 30.505 9.91626 30.505 8.69995C30.505 7.48364 29.5182 6.49682 28.3019 6.49682V6.49756ZM18.5017 9.07173C13.2949 9.07173 9.07338 13.2933 9.07338 18.5002C9.07338 23.7071 13.2949 27.9266 18.5017 27.9266C23.7086 27.9266 27.9286 23.7071 27.9286 18.5002C27.9286 13.2935 23.7082 9.07173 18.5013 9.07173H18.5017ZM18.5017 12.3803C21.8814 12.3803 24.6216 15.12 24.6216 18.5002C24.6216 21.88 21.8814 24.6201 18.5017 24.6201C15.1217 24.6201 12.3819 21.88 12.3819 18.5002C12.3819 15.12 15.1217 12.3803 18.5017 12.3803Z" fill="white"/>
</svg>
